<?xml version="1.0" encoding="utf-8"?>
<!-- Generator: Adobe Illustrator 23.0.0, SVG Export Plug-In . SVG Version: 6.00 Build 0)  -->
<svg version="1.1" id="Layer_1" xmlns="http://www.w3.org/2000/svg" xmlns:xlink="http://www.w3.org/1999/xlink" x="0px" y="0px"
	 viewBox="0 0 418 97" style="enable-background:new 0 0 418 97;" xml:space="preserve">
<style type="text/css">
	.st0{fill:#CFCFCF;}
</style>
<path class="st0" d="M88.9,35.8c-0.5-1.4-1.2-2.7-2-3.8c-0.8-1.1-1.8-2-2.8-2.7c-0.5-0.4-1-0.7-1.6-1c-0.5-0.3-1.1-0.5-1.6-0.7
	c-1.1-0.4-2.2-0.7-3.3-0.9c-2.2-0.4-4.4-0.4-6.6-0.1s-4.3,0.9-6.4,1.7c-2.1,0.8-4.1,1.9-6.1,3.1c-3.2,2.1-6.2,4.7-8.9,7.8
	c-1.1-0.9-2.2-1.8-3.3-2.8c1.1-1.1,2.2-2.2,3.2-3.3c0.6-0.6,1.1-1.2,1.6-1.8c0.5-0.6,1.1-1.3,1.6-1.9c2.1-2.6,4-5.3,5.8-8.3
	c0.9-1.5,1.7-3,2.4-4.7c0.4-0.8,0.7-1.7,1-2.5c0.3-0.9,0.5-1.8,0.6-2.7c-0.3,0.9-0.6,1.7-1,2.4c-0.4,0.8-0.8,1.5-1.2,2.2
	c-0.4,0.7-0.9,1.4-1.4,2.1c-0.5,0.7-0.9,1.3-1.4,2c-2,2.6-4.1,5-6.2,7.3c-0.5,0.6-1.1,1.1-1.6,1.7s-1.1,1.1-1.6,1.7
	c-1.1,1.1-2.2,2.1-3.4,3.2c-0.3,0.3-0.5,0.5-0.8,0.7c-0.5-0.4-1-0.8-1.5-1.3c-0.9-0.7-1.8-1.5-2.8-2.2c-0.9-0.7-1.9-1.5-2.8-2.2
	c-0.5-0.3-1-0.7-1.4-1c-0.5-0.3-1-0.7-1.5-1c-2-1.3-4.1-2.4-6.3-3.3s-4.4-1.5-6.7-1.8c-2.3-0.2-4.7-0.1-6.9,0.6
	c-0.6,0.2-1.1,0.4-1.7,0.7c-0.6,0.3-1.1,0.6-1.6,0.9c-1.1,0.7-2.1,1.6-3,2.6c-0.9,1.1-1.7,2.3-2.2,3.7c-0.6,1.4-1,2.9-1.1,4.5
	c-0.1,0.8-0.1,1.6,0,2.3c0,0.8,0.1,1.5,0.3,2.2c0.3,1.5,1,3.6,1.8,4.6c0,0,0,0,0.1,0l0,0c0.5,1,2.9,3.2,4.2,4.1
	c0.6,0.5,1.3,0.9,2,1.3c0.7,0.4,1.4,0.7,2.1,0.9c0.7,0.2,1.4,0.4,2.1,0.6c0.7,0.1,1.5,0.2,2.2,0.3c0.7,0,1.5,0,2.2,0
	s1.5-0.1,2.2-0.3c0.7-0.1,1.4-0.3,2.1-0.5s1.4-0.4,2.1-0.6c1.4-0.5,2.8-1.1,4.1-1.7c2.7-1.3,5.3-3,7.8-4.8c1-0.8,2.1-1.6,3.1-2.4
	l0.4,0.3c1.2,1,2.4,2,3.6,3c-0.1,0.2-0.3,0.4-0.4,0.5c-0.8,1-1.5,2.1-2.2,3.3s-1.3,2.4-1.8,3.7s-0.9,2.8-1.2,4.3
	c-0.2,1.5-0.3,3-0.2,4.6c0.1,1.5,0.4,3,0.9,4.4c0.5,1.4,1.1,2.7,1.8,3.8c0.7,1.1,1.5,2.2,2.3,3.1c1.7,1.8,3.5,3.3,5.4,4.4
	s3.9,2,6,2.6c1,0.3,2.1,0.6,3.1,0.7c1,0.2,2.1,0.3,3.1,0.4c2.1,0.2,4.1,0.1,6.2-0.2c-4.1,0.1-8.2-0.6-12.1-2.1
	c-1.9-0.8-3.8-1.8-5.6-3c-0.9-0.6-1.7-1.3-2.6-2c-0.8-0.7-1.6-1.6-2.3-2.5s-1.4-1.9-1.9-2.9c-0.6-1-1-2.1-1.3-3.3s-0.5-2.4-0.6-3.6
	c0-1.2,0.1-2.4,0.3-3.6c0.2-1.2,0.6-2.3,1.1-3.4c0.5-1.1,1-2.1,1.6-3.1s1.3-1.9,2-2.8c0.3-0.4,0.7-0.8,1.1-1.2
	c1.7,1.3,3.3,2.6,5,3.8c1,0.7,1.9,1.4,2.9,2c1,0.7,2,1.3,3,1.9c1,0.6,2,1.2,3.1,1.7c1,0.5,2.1,1,3.2,1.4c2.2,0.8,4.4,1.4,6.7,1.6
	c1.2,0.1,2.3,0,3.5-0.2c0.6-0.1,1.2-0.2,1.7-0.4c0.6-0.2,1.1-0.4,1.7-0.7s1.1-0.6,1.6-0.9c0.5-0.3,1-0.7,1.5-1.2
	c0.5-0.4,0.9-0.9,1.4-1.4c0.4-0.5,0.8-1,1.2-1.5c1.5-2.1,2.8-4.6,3.7-7.1c0.5-1.2,0.7-2.7,0.8-4.1c0-0.7,0-1.5-0.1-2.3
	C89.3,37.3,89.1,36.5,88.9,35.8z M37.5,39.2c-2.4,1.8-4.8,3.4-7.3,4.8c-1.3,0.7-2.5,1.3-3.8,1.9c-0.6,0.3-1.3,0.5-1.9,0.8
	c-0.6,0.2-1.3,0.5-2,0.6c-2.6,0.7-5.3,1.1-8,0.6c-1.3-0.2-2.7-0.6-3.9-1.3c-1-0.5-4.2-3.5-4.2-3.5c-0.8-1.4-1.3-3.2-1.4-4.4
	c0-0.7,0-1.4,0-2c0.1-0.7,0.2-1.3,0.3-1.9c0.2-0.6,0.3-1.2,0.6-1.8c0.2-0.6,0.5-1.1,0.8-1.6c0.6-1,1.3-1.9,2.1-2.6s1.7-1.3,2.6-1.7
	c0.9-0.4,1.9-0.7,2.8-0.9c1.9-0.3,3.9-0.2,5.9,0.2c2,0.4,3.9,1.2,5.8,2.1c1.9,0.9,3.8,2.1,5.6,3.4c1.8,1.3,3.6,2.7,5.5,4.2
	c0.8,0.6,1.5,1.2,2.3,1.8C38.6,38.3,38.1,38.8,37.5,39.2z M84.2,50.3c-0.4,0.4-0.8,0.8-1.3,1.2c-0.4,0.4-0.9,0.7-1.3,1
	c-0.5,0.3-0.9,0.5-1.4,0.8c-0.5,0.2-1,0.4-1.4,0.5c-1.9,0.6-3.9,0.6-5.9,0.2c-2-0.4-3.9-1.2-5.8-2.2s-3.8-2.1-5.7-3.4
	c-0.9-0.6-1.8-1.3-2.8-2c-0.9-0.7-1.8-1.4-2.7-2.1c-1-0.8-1.9-1.5-2.9-2.3c2.4-1.9,4.9-3.6,7.5-5c1.8-1,3.6-1.9,5.5-2.6
	c1.9-0.7,3.8-1.3,5.7-1.6c1.9-0.4,3.8-0.5,5.7-0.5c0.9,0,1.9,0.2,2.8,0.3c0.5,0.1,0.9,0.2,1.4,0.4c0.5,0.1,0.9,0.3,1.3,0.5
	c0.9,0.4,1.7,0.9,2.5,1.5s1.5,1.4,2,2.3c0.3,0.5,0.5,1,0.7,1.5c0.2,0.6,0.4,1.1,0.5,1.8c0.2,1,0.4,2.6,0.1,3.9
	C87.2,46.8,85.9,48.7,84.2,50.3z"/>
<polygon class="st0" points="113.1,48.9 130,48.9 130,46.2 115.9,46.2 115.9,31.6 130,31.6 130,28.8 115.9,28.8 115.9,17.4 
	130,17.4 130,14.7 113.1,14.7 "/>
<path class="st0" d="M151.7,30.9c-1.1-0.6-2.4-1.3-3.8-2c-2.3-1-3.8-1.9-4.6-2.5c-1.3-1.1-1.9-2.4-1.9-3.9c0-1.7,0.6-3,1.8-4
	c1.1-1,2.6-1.4,4.3-1.4s3,0.3,4.1,1c0.8,0.5,1.5,1.2,2.1,2.2l0.2,0.3l2.6-1.1l-0.2-0.4c-1.7-3.1-4.6-4.6-8.7-4.6
	c-2.5,0-4.6,0.8-6.3,2.3c-1.7,1.5-2.6,3.5-2.6,5.9s0.9,4.4,2.6,5.9c1,0.9,2.8,2,5.5,3.2c1.4,0.6,2.5,1.2,3.4,1.7s1.5,0.9,1.9,1.3
	c1.6,1.4,2.4,3.1,2.4,5.2c0,2.2-0.7,3.9-2,5s-3.1,1.7-5.4,1.7c-4,0-6.5-1.9-7.6-5.7l-0.1-0.4l-2.7,0.9l0.1,0.4c1.5,5,5,7.6,10.3,7.6
	c1.7,0,3.2-0.2,4.5-0.7c3.8-1.4,5.7-4.3,5.7-8.8c0-2.7-0.9-5.1-2.8-6.9C153.7,32.3,152.8,31.6,151.7,30.9z"/>
<path class="st0" d="M181.9,17c-1.8-1.6-4.1-2.3-6.7-2.3h-8.6V49h2.7V32.2h5.9c2.7,0,4.9-0.8,6.7-2.4s2.8-3.7,2.8-6.4
	C184.6,20.7,183.7,18.6,181.9,17z M169.3,17.4h5.8c2,0,3.6,0.5,4.8,1.5c1.4,1.1,2,2.6,2,4.5s-0.6,3.4-1.9,4.5
	c-1.3,1.1-2.9,1.6-4.9,1.6h-5.8L169.3,17.4L169.3,17.4z"/>
<polygon class="st0" points="195.4,48.9 212.3,48.9 212.3,46.2 198.1,46.2 198.1,31.6 212.3,31.6 212.3,28.8 198.1,28.8 198.1,17.4 
	212.3,17.4 212.3,14.7 195.4,14.7 "/>
<path class="st0" d="M251.7,41.9l-0.6,0.5c-1.8,1.3-3.3,2.3-4.4,2.8c-2,1-4.4,1.5-7.1,1.5c-4.3,0-7.9-1.4-10.7-4.2
	c-2.7-2.7-4.1-6.3-4.1-10.7c0-4.3,1.4-7.9,4.2-10.7s6.4-4.2,10.7-4.2c2.5,0,5,0.5,7.3,1.4c1.5,0.6,2.9,1.5,4.2,2.6l0.7,0.6v-3.4
	l-0.1-0.1c-1.3-1-2.7-1.8-4.1-2.4c-2.3-0.9-5-1.3-7.9-1.3c-5.1,0-9.4,1.7-12.7,4.9c-3.2,3.3-4.9,7.5-4.9,12.7s1.7,9.4,4.9,12.7
	c3.3,3.3,7.5,4.9,12.7,4.9c0.4,0,0.9,0,1.3,0c0.4,0,0.8,0,1.2-0.1c3.1-0.3,5.5-1.1,7.3-2.4l2.4-1.8v-3.3H251.7z"/>
<rect x="260.7" y="14.7" class="st0" width="2.7" height="34.3"/>
<polygon class="st0" points="273.7,48.9 276.4,48.9 276.4,31.5 289.1,31.5 289.1,28.8 276.4,28.8 276.4,17.4 289.1,17.4 289.1,14.7 
	273.7,14.7 "/>
<rect x="299.4" y="14.7" class="st0" width="2.7" height="34.3"/>
<path class="st0" d="M337.3,15.5c-2.3-0.9-5-1.3-7.9-1.3c-5.1,0-9.4,1.7-12.7,4.9c-3.2,3.3-4.9,7.5-4.9,12.7s1.7,9.4,4.9,12.7
	c3.3,3.3,7.5,4.9,12.7,4.9c0.4,0,0.9,0,1.3,0s0.8,0,1.2-0.1c3.1-0.3,5.5-1.1,7.3-2.4l2.4-1.8v-3.2l-0.6,0.5
	c-1.8,1.3-3.3,2.3-4.4,2.8c-2,1-4.4,1.5-7.1,1.5c-4.3,0-7.9-1.4-10.7-4.2c-2.7-2.7-4.1-6.3-4.1-10.7c0-4.3,1.4-7.9,4.2-10.7
	c2.8-2.8,6.4-4.2,10.7-4.2c2.5,0,5,0.5,7.3,1.4c1.5,0.6,2.9,1.5,4.2,2.6l0.7,0.6v-3.4l-0.1-0.1C340.1,16.8,338.8,16,337.3,15.5z"/>
<path class="st0" d="M382.5,31.8c0-5.1-1.7-9.4-4.9-12.7c-3.3-3.2-7.6-4.9-12.7-4.9s-9.4,1.7-12.7,4.9c-3.2,3.3-4.9,7.5-4.9,12.7
	s1.7,9.4,4.9,12.7c3.3,3.3,7.5,4.9,12.7,4.9s9.4-1.7,12.7-4.9C380.8,41.2,382.5,37,382.5,31.8z M364.9,46.7c-4.3,0-7.9-1.4-10.7-4.2
	c-2.7-2.7-4.1-6.3-4.1-10.7c0-4.3,1.4-7.9,4.2-10.7c2.8-2.8,6.4-4.2,10.7-4.2c4.4,0,8,1.4,10.8,4.2s4.2,6.4,4.2,10.7
	c0,4.4-1.4,8-4.1,10.8C372.8,45.3,369.2,46.7,364.9,46.7z"/>
<path class="st0" d="M405.8,48.6c3.8-1.4,5.7-4.3,5.7-8.8c0-2.7-0.9-5.1-2.8-6.9c-0.7-0.7-1.6-1.3-2.6-2c-1.1-0.6-2.4-1.3-3.8-2
	c-2.3-1-3.8-1.9-4.6-2.5c-1.3-1.1-1.9-2.4-1.9-3.9c0-1.7,0.6-3,1.8-4c1.1-1,2.6-1.4,4.3-1.4c1.7,0,3,0.3,4.1,1
	c0.8,0.5,1.5,1.2,2.1,2.2l0.2,0.3l2.6-1.1l-0.2-0.4c-1.7-3.1-4.6-4.6-8.7-4.6c-2.5,0-4.6,0.8-6.3,2.3c-1.7,1.5-2.6,3.5-2.6,5.9
	s0.9,4.4,2.6,5.9c1,0.9,2.8,2,5.5,3.2c1.4,0.6,2.5,1.2,3.4,1.7s1.5,0.9,1.9,1.3c1.6,1.4,2.4,3.1,2.4,5.2c0,2.2-0.7,3.9-2,5
	s-3.1,1.7-5.4,1.7c-4,0-6.5-1.9-7.6-5.7l-0.1-0.4l-2.7,0.9l0.1,0.4c1.5,5,5,7.6,10.3,7.6C403.1,49.3,404.5,49.1,405.8,48.6z"/>
<path class="st0" d="M121.9,71c0.7-0.3,2.2-1.3,2.2-3.4c0-1.9-1.3-4.1-5.1-4.1h-6.1v0.8h0.1c0.9,0,1.4,0.4,1.4,1.4V78
	c0,0.9-0.4,1.4-1.3,1.4H113v0.8h6.6c4.1,0,5.6-2.6,5.6-4.8C125.1,72.3,122.9,71.3,121.9,71z M118.5,64.2c1.9,0,3.8,1.2,3.8,3.3
	c0,2.2-2.2,3.3-3.8,3.3h-2.3v-6.7L118.5,64.2L118.5,64.2z M116.2,71.7h1.8c3.2,0,5.3,0.7,5.3,3.8c0,2.1-1.6,3.8-3.6,3.8h-2.2
	c-0.9,0-1.3-0.4-1.3-1.3C116.2,78,116.2,71.7,116.2,71.7z"/>
<path class="st0" d="M149.7,64.2h0.1c0.9,0,1.4,0.4,1.4,1.4v7.9c0,3.8-1.7,5.8-4.8,5.8s-4.8-2.1-4.8-5.8v-7.9c0-0.9,0.4-1.3,1.4-1.3
	h0v-0.8h-4.7v0.8h0.1c0.9,0,1.4,0.4,1.4,1.4v7.9c0,4.3,2.3,6.6,6.6,6.6c3.5,0,5.6-2.4,5.6-6.3v-8.3c0-0.9,0.4-1.3,1.4-1.3h0.1v-0.8
	h-3.7v0.7H149.7z"/>
<path class="st0" d="M179.5,75c0,0-0.5,4.4-3.1,4.4h-5c-0.9,0-1.3-0.4-1.3-1.3v-6.3h3.8c1.2,0,1.4,0.5,1.4,0.9v0.6h0.8v-3.7h-0.8
	v0.6c0,0.9-1.3,0.9-1.3,0.9h-3.8v-6.7h4.8c3.3,0,3.8,2.8,3.8,2.9v0.1h0.8l-1.1-3.7h-11.6v0.8h0.1c0.9,0,1.4,0.4,1.4,1.4V78
	c0,0.9-0.4,1.4-1.3,1.4H167v0.8h12.9l0.5-5.2L179.5,75L179.5,75z"/>
<path class="st0" d="M205.4,64.2h0.1c0.9,0,1.4,0.4,1.4,1.4v10.9l-9.2-13v-0.1h-3.6v0.8h0.1c0.9,0,1.4,0.4,1.4,1.4V78
	c0,0.9-0.4,1.4-1.3,1.4h-0.1v0.8h3.7v-0.8h-0.1c-0.9,0-1.3-0.4-1.3-1.3v-13l10.7,15h0.7V65.6c0-0.9,0.4-1.3,1.4-1.3h0.1v-0.8h-3.7
	v0.7H205.4z"/>
<path class="st0" d="M229.6,63.5c-3.8,0-7.6,2.6-7.6,8.3c0,5.8,3.8,8.3,7.6,8.3c4.7,0,7.6-3.1,7.6-8.3
	C237.1,66.6,234.3,63.5,229.6,63.5z M229.6,79.4c-3.5,0-5.7-3-5.7-7.6s2.2-7.6,5.7-7.6s5.7,3,5.7,7.6S233,79.4,229.6,79.4z"/>
<path class="st0" d="M257,70.5c-2.4-0.6-4.4-1.1-4.4-3.2c0-2,2-3.1,3.8-3.1c3.2,0,4.8,2.1,4.8,4.1v0.1h0.8v-5h-0.8v0.1
	c0,1.4-0.2,1.4-0.3,1.4c-0.1,0-0.2-0.1-0.4-0.2c-0.5-0.4-1.5-1.2-4.1-1.2c-2.7,0-5.6,1.3-5.6,4.1c0,2.9,2.7,3.6,5.3,4.4
	c2.6,0.8,5.1,1.5,5.1,4.1c0,2.1-2.5,3.3-4.8,3.3c-2.1,0-5.3-1.9-5.3-4.3V75h-0.8v5.2h0.8v-0.1c0-1,0.2-1.3,0.4-1.3
	c0.1,0,0.3,0.1,0.6,0.3c0.8,0.4,2.2,1.2,4.4,1.2c4.6,0,6.6-1.3,6.6-4.3C263,72,259.8,71.2,257,70.5z"/>
<path class="st0" d="M310.4,78.6c-0.4-0.8-6.7-15-6.7-15v-0.1H303v0.1c-0.2,0.6-6.1,14.8-6.3,15.3c-0.2,0.4-0.4,0.6-0.8,0.6
	s-0.5,0-0.4,0l-0.2-0.1v0.8h3.6v-0.6v-0.1h-0.7c-0.2,0-0.4,0-0.5-0.1c0-0.1-0.1-0.2,0.1-0.7c0.3-0.8,1.6-3.7,1.8-4.3h6.9
	c0.2,0.6,1.7,3.8,1.9,4.2c0.1,0.3,0.3,0.7,0.3,0.8c0,0,0,0-0.2,0h-0.8v0.7h4.3v-0.7h-0.4C310.9,79.4,310.7,79.4,310.4,78.6z
	 M306.2,73.6h-6.3l3.1-7.4L306.2,73.6z"/>
<path class="st0" d="M325.3,64.2h0.1c0.9,0,1.4,0.4,1.4,1.4V78c0,0.9-0.4,1.4-1.3,1.4h-0.1v0.8h4.7v-0.8H330c-0.9,0-1.3-0.4-1.3-1.3
	V65.6c0-0.9,0.4-1.3,1.4-1.3h0.1v-0.8h-4.7v0.7H325.3z"/>
<path class="st0" d="M354.9,77.3c0-2.9-1.8-5-3-5.6c1.8-0.3,3-1.8,3-4c0-1-0.3-4.1-4.8-4.1h-6.4v0.8h0.1c0.9,0,1.4,0.4,1.4,1.4V78
	c0,0.9-0.4,1.4-1.3,1.4h-0.1v0.8h4.7v-0.8h-0.1c-0.9,0-1.3-0.4-1.3-1.3v-6.3h0.9c3.5,0,5.3,3.7,5.3,5.8c0,2.1,1.3,2.6,1.3,2.6h2.9
	v-0.8h-0.6C355.9,79.4,354.9,78.5,354.9,77.3z M347,64.2h2.4c1.8,0,3.8,0.6,3.8,3.3c0,3.1-2.9,3.3-3.8,3.3h-2.3v-6.6H347z"/>
<path class="st0" d="M383.5,75c0,0-0.5,4.4-3.1,4.4h-5c-0.9,0-1.3-0.4-1.3-1.3v-6.3h3.8c1.2,0,1.4,0.5,1.4,0.9v0.6h0.8v-3.7h-0.8
	v0.6c0,0.9-1.3,0.9-1.3,0.9h-3.8v-6.7h4.8c3.3,0,3.8,2.8,3.8,2.9v0.1h0.8l-1.1-3.7h-11.6v0.8h0.1c0.9,0,1.4,0.4,1.4,1.4V78
	c0,0.9-0.4,1.4-1.3,1.4H371v0.8h12.9l0.5-5.2L383.5,75L383.5,75z"/>
<path class="st0" d="M404.4,70.5c-2.4-0.6-4.4-1.1-4.4-3.2c0-2,2-3.1,3.8-3.1c3.2,0,4.8,2.1,4.8,4.1v0.1h0.8v-5h-0.8v0.1
	c0,1.4-0.2,1.4-0.3,1.4c-0.1,0-0.2-0.1-0.4-0.2c-0.5-0.4-1.5-1.2-4.1-1.2c-2.7,0-5.6,1.3-5.6,4.1c0,2.9,2.7,3.6,5.3,4.4
	c2.6,0.8,5.1,1.5,5.1,4.1c0,2.1-2.5,3.3-4.8,3.3c-2.1,0-5.3-1.9-5.3-4.3V75h-0.8v5.2h0.8v-0.1c0-1,0.2-1.3,0.4-1.3
	c0.1,0,0.3,0.1,0.6,0.3c0.8,0.4,2.2,1.2,4.4,1.2c4.6,0,6.6-1.3,6.6-4.3C410.4,72,407.2,71.2,404.4,70.5z"/>
<rect x="98.9" y="2.9" class="st0" width="1.7" height="91.1"/>
</svg>
