<?xml version="1.0" encoding="utf-8"?>
<!-- Generator: Adobe Illustrator 23.0.0, SVG Export Plug-In . SVG Version: 6.00 Build 0)  -->
<svg version="1.1" id="Layer_1" xmlns="http://www.w3.org/2000/svg" xmlns:xlink="http://www.w3.org/1999/xlink" x="0px" y="0px"
	 viewBox="0 0 269.6 64" style="enable-background:new 0 0 269.6 64;" xml:space="preserve">
<style type="text/css">
	.st0{stroke:#000000;stroke-width:0.5;stroke-miterlimit:10;}
	.st1{stroke:#000000;stroke-width:0.25;stroke-miterlimit:10;}
</style>
<g>
	<path class="st0" d="M58.9,23.9c-0.3-0.9-0.8-1.7-1.3-2.4c-0.5-0.7-1.1-1.3-1.8-1.7c-0.3-0.3-0.6-0.4-1-0.6c-0.3-0.2-0.7-0.3-1-0.4
		c-0.7-0.3-1.4-0.4-2.1-0.6c-1.4-0.3-2.8-0.3-4.2-0.1s-2.7,0.6-4.1,1.1s-2.6,1.2-3.9,2c-2,1.3-4,3-5.7,5c-0.7-0.6-1.4-1.1-2.1-1.8
		c0.7-0.7,1.4-1.4,2-2.1c0.4-0.4,0.7-0.8,1-1.1c0.3-0.4,0.7-0.8,1-1.2c1.3-1.7,2.5-3.4,3.7-5.3c0.6-1,1.1-1.9,1.5-3
		c0.3-0.5,0.4-1.1,0.6-1.6c0.2-0.6,0.3-1.1,0.4-1.7c-0.2,0.6-0.4,1.1-0.6,1.5c-0.3,0.5-0.5,1-0.8,1.4c-0.3,0.4-0.6,0.9-0.9,1.3
		c-0.3,0.4-0.6,0.8-0.9,1.3c-1.3,1.7-2.6,3.2-4,4.7c-0.3,0.4-0.7,0.7-1,1.1c-0.3,0.4-0.7,0.7-1,1.1c-0.7,0.7-1.4,1.3-2.2,2
		c-0.2,0.2-0.3,0.3-0.5,0.4c-0.3-0.3-0.6-0.5-1-0.8c-0.6-0.4-1.1-1-1.8-1.4c-0.6-0.4-1.2-1-1.8-1.4c-0.3-0.2-0.6-0.4-0.9-0.6
		c-0.3-0.2-0.6-0.4-1-0.6c-1.3-0.8-2.6-1.5-4-2.1c-1.4-0.6-2.8-1-4.3-1.1c-1.5-0.1-3-0.1-4.4,0.4c-0.4,0.1-0.7,0.3-1.1,0.4
		c-0.4,0.2-0.7,0.4-1,0.6c-0.7,0.4-1.3,1-1.9,1.7c-0.6,0.7-1.1,1.5-1.4,2.4c-0.4,0.9-0.6,1.8-0.7,2.9c-0.1,0.5-0.1,1,0,1.5
		c0,0.5,0.1,1,0.2,1.4c0.2,1,0.6,2.3,1.1,2.9c0,0,0,0,0.1,0l0,0c0.3,0.6,1.8,2,2.7,2.6c0.4,0.3,0.8,0.6,1.3,0.8s0.9,0.4,1.3,0.6
		c0.4,0.1,0.9,0.3,1.3,0.4c0.4,0.1,1,0.1,1.4,0.2c0.4,0,1,0,1.4,0c0.4,0,1-0.1,1.4-0.2c0.4-0.1,0.9-0.2,1.3-0.3s0.9-0.3,1.3-0.4
		c0.9-0.3,1.8-0.7,2.6-1.1c1.7-0.8,3.4-1.9,5-3.1c0.6-0.5,1.3-1,2-1.5l0.3,0.2c0.8,0.6,1.5,1.3,2.3,1.9c-0.1,0.1-0.2,0.3-0.3,0.3
		c-0.5,0.6-1,1.3-1.4,2.1s-0.8,1.5-1.1,2.4c-0.3,0.8-0.6,1.8-0.8,2.7c-0.1,1-0.2,1.9-0.1,2.9c0.1,1,0.3,1.9,0.6,2.8
		c0.3,0.9,0.7,1.7,1.1,2.4s1,1.4,1.5,2c1.1,1.1,2.2,2.1,3.4,2.8c1.2,0.7,2.5,1.3,3.8,1.7c0.6,0.2,1.3,0.4,2,0.4
		c0.6,0.1,1.3,0.2,2,0.3c1.3,0.1,2.6,0.1,4-0.1c-2.6,0.1-5.2-0.4-7.7-1.3c-1.2-0.5-2.4-1.1-3.6-1.9c-0.6-0.4-1.1-0.8-1.7-1.3
		c-0.5-0.4-1-1-1.5-1.6c-0.4-0.6-0.9-1.2-1.2-1.8c-0.4-0.6-0.6-1.3-0.8-2.1C30.1,41,30,40.3,30,39.5c0-0.8,0.1-1.5,0.2-2.3
		c0.1-0.8,0.4-1.5,0.7-2.2c0.3-0.7,0.6-1.3,1-2c0.4-0.6,0.8-1.2,1.3-1.8c0.2-0.3,0.4-0.5,0.7-0.8c1.1,0.8,2.1,1.7,3.2,2.4
		c0.6,0.4,1.2,0.9,1.8,1.3c0.6,0.4,1.3,0.8,1.9,1.2c0.6,0.4,1.3,0.8,2,1.1c0.6,0.3,1.3,0.6,2,0.9c1.4,0.5,2.8,0.9,4.3,1
		c0.8,0.1,1.5,0,2.2-0.1c0.4-0.1,0.8-0.1,1.1-0.3c0.4-0.1,0.7-0.3,1.1-0.4c0.4-0.2,0.7-0.4,1-0.6c0.3-0.2,0.6-0.4,1-0.8
		c0.3-0.3,0.6-0.6,0.9-0.9c0.3-0.3,0.5-0.6,0.8-1c1-1.3,1.8-2.9,2.4-4.5c0.3-0.8,0.4-1.7,0.5-2.6c0-0.4,0-1-0.1-1.5
		C59.2,24.9,59.1,24.4,58.9,23.9z M26.2,26.1c-1.5,1.1-3.1,2.2-4.7,3.1c-0.8,0.4-1.6,0.8-2.4,1.2c-0.4,0.2-0.8,0.3-1.2,0.5
		c-0.4,0.1-0.8,0.3-1.3,0.4c-1.7,0.4-3.4,0.7-5.1,0.4c-0.8-0.1-1.7-0.4-2.5-0.8c-0.6-0.3-2.7-2.2-2.7-2.2c-0.5-0.9-0.8-2-0.9-2.8
		c0-0.4,0-0.9,0-1.3c0.1-0.4,0.1-0.8,0.2-1.2c0.1-0.4,0.2-0.8,0.4-1.1c0.1-0.4,0.3-0.7,0.5-1c0.4-0.6,0.8-1.2,1.3-1.7
		C8.4,19,9,18.7,9.6,18.4c0.6-0.3,1.2-0.4,1.8-0.6c1.2-0.2,2.5-0.1,3.8,0.1s2.5,0.8,3.7,1.3c1.2,0.6,2.4,1.3,3.6,2.2
		c1.1,0.8,2.3,1.7,3.5,2.7c0.5,0.4,1,0.8,1.5,1.1C26.9,25.5,26.6,25.9,26.2,26.1z M55.9,33.2c-0.3,0.3-0.5,0.5-0.8,0.8
		c-0.3,0.3-0.6,0.4-0.8,0.6c-0.3,0.2-0.6,0.3-0.9,0.5c-0.3,0.1-0.6,0.3-0.9,0.3c-1.2,0.4-2.5,0.4-3.8,0.1s-2.5-0.8-3.7-1.4
		c-1.2-0.6-2.4-1.3-3.6-2.2c-0.6-0.4-1.1-0.8-1.8-1.3c-0.6-0.4-1.1-0.9-1.7-1.3c-0.6-0.5-1.2-1-1.8-1.5c1.5-1.2,3.1-2.3,4.8-3.2
		c1.1-0.6,2.3-1.2,3.5-1.7c1.2-0.4,2.4-0.8,3.6-1c1.2-0.3,2.4-0.3,3.6-0.3c0.6,0,1.2,0.1,1.8,0.2c0.3,0.1,0.6,0.1,0.9,0.3
		c0.3,0.1,0.6,0.2,0.8,0.3c0.6,0.3,1.1,0.6,1.6,1c0.5,0.4,1,0.9,1.3,1.5c0.2,0.3,0.3,0.6,0.4,1c0.1,0.4,0.3,0.7,0.3,1.1
		c0.1,0.6,0.3,1.7,0.1,2.5C57.9,30.9,57,32.2,55.9,33.2z"/>
	<polygon class="st1" points="74.4,32.3 85.1,32.3 85.1,30.6 76.1,30.6 76.1,21.3 85.1,21.3 85.1,19.5 76.1,19.5 76.1,12.2 
		85.1,12.2 85.1,10.5 74.4,10.5 	"/>
	<path class="st1" d="M99,20.8c-0.7-0.4-1.5-0.8-2.4-1.3c-1.5-0.6-2.4-1.2-2.9-1.6c-0.8-0.7-1.2-1.5-1.2-2.5c0-1.1,0.4-1.9,1.1-2.5
		c0.7-0.6,1.7-0.9,2.7-0.9c1.1,0,1.9,0.2,2.6,0.6c0.5,0.3,1,0.8,1.3,1.4l0.1,0.2l1.7-0.7l-0.1-0.3c-1.1-2-2.9-2.9-5.5-2.9
		c-1.6,0-2.9,0.5-4,1.5s-1.7,2.2-1.7,3.8s0.6,2.8,1.7,3.8c0.6,0.6,1.8,1.3,3.5,2c0.9,0.4,1.6,0.8,2.2,1.1c0.6,0.3,1,0.6,1.2,0.8
		c1,0.9,1.5,2,1.5,3.3c0,1.4-0.4,2.5-1.3,3.2s-2,1.1-3.4,1.1c-2.5,0-4.1-1.2-4.8-3.6L91.1,27l-1.7,0.6l0.1,0.3
		c1,3.2,3.2,4.8,6.6,4.8c1.1,0,2-0.1,2.9-0.4c2.4-0.9,3.6-2.7,3.6-5.6c0-1.7-0.6-3.2-1.8-4.4C100.2,21.7,99.7,21.3,99,20.8z"/>
	<path class="st1" d="M118.2,12c-1.1-1-2.6-1.5-4.3-1.5h-5.5v21.9h1.7V21.6h3.8c1.7,0,3.1-0.5,4.3-1.5c1.1-1,1.8-2.4,1.8-4.1
		C119.9,14.3,119.4,13,118.2,12z M110.2,12.2h3.7c1.3,0,2.3,0.3,3.1,1c0.9,0.7,1.3,1.7,1.3,2.9s-0.4,2.2-1.2,2.9
		c-0.8,0.7-1.8,1-3.1,1h-3.7L110.2,12.2L110.2,12.2z"/>
	<polygon class="st1" points="126.8,32.3 137.6,32.3 137.6,30.6 128.5,30.6 128.5,21.3 137.6,21.3 137.6,19.5 128.5,19.5 
		128.5,12.2 137.6,12.2 137.6,10.5 126.8,10.5 	"/>
	<path class="st1" d="M162.7,27.8l-0.4,0.3c-1.1,0.8-2.1,1.5-2.8,1.8c-1.3,0.6-2.8,1-4.5,1c-2.7,0-5-0.9-6.8-2.7
		c-1.7-1.7-2.6-4-2.6-6.8c0-2.7,0.9-5,2.7-6.8c1.8-1.8,4.1-2.7,6.8-2.7c1.6,0,3.2,0.3,4.7,0.9c1,0.4,1.8,1,2.7,1.7l0.4,0.4v-2.2
		l-0.1-0.1c-0.8-0.6-1.7-1.1-2.6-1.5c-1.5-0.6-3.2-0.8-5-0.8c-3.2,0-6,1.1-8.1,3.1c-2,2.1-3.1,4.8-3.1,8.1s1.1,6,3.1,8.1
		c2.1,2.1,4.8,3.1,8.1,3.1c0.3,0,0.6,0,0.8,0c0.3,0,0.5,0,0.8-0.1c2-0.2,3.5-0.7,4.7-1.5l1.5-1.1v-2.1H162.7z"/>
	<rect x="168.4" y="10.5" class="st1" width="1.7" height="21.9"/>
	<polygon class="st1" points="176.7,32.3 178.4,32.3 178.4,21.2 186.5,21.2 186.5,19.5 178.4,19.5 178.4,12.2 186.5,12.2 
		186.5,10.5 176.7,10.5 	"/>
	<rect x="193.1" y="10.5" class="st1" width="1.7" height="21.9"/>
	<path class="st1" d="M217.2,11c-1.5-0.6-3.2-0.8-5-0.8c-3.2,0-6,1.1-8.1,3.1c-2,2.1-3.1,4.8-3.1,8.1s1.1,6,3.1,8.1
		c2.1,2.1,4.8,3.1,8.1,3.1c0.3,0,0.6,0,0.8,0c0.3,0,0.5,0,0.8-0.1c2-0.2,3.5-0.7,4.7-1.5l1.5-1.1v-2l-0.4,0.3
		c-1.1,0.8-2.1,1.5-2.8,1.8c-1.3,0.6-2.8,1-4.5,1c-2.7,0-5-0.9-6.8-2.7c-1.7-1.7-2.6-4-2.6-6.8c0-2.7,0.9-5,2.7-6.8
		c1.8-1.8,4.1-2.7,6.8-2.7c1.6,0,3.2,0.3,4.7,0.9c1,0.4,1.8,1,2.7,1.7l0.4,0.4v-2.2l-0.1-0.1C219,11.8,218.2,11.3,217.2,11z"/>
	<path class="st1" d="M246,21.4c0-3.2-1.1-6-3.1-8.1c-2.1-2-4.8-3.1-8.1-3.1s-6,1.1-8.1,3.1c-2,2.1-3.1,4.8-3.1,8.1s1.1,6,3.1,8.1
		c2.1,2.1,4.8,3.1,8.1,3.1s6-1.1,8.1-3.1C244.9,27.4,246,24.7,246,21.4z M234.8,30.9c-2.7,0-5-0.9-6.8-2.7c-1.7-1.7-2.6-4-2.6-6.8
		c0-2.7,0.9-5,2.7-6.8c1.8-1.8,4.1-2.7,6.8-2.7c2.8,0,5.1,0.9,6.9,2.7s2.7,4.1,2.7,6.8c0,2.8-0.9,5.1-2.6,6.9
		C239.9,30,237.6,30.9,234.8,30.9z"/>
	<path class="st1" d="M260.9,32.1c2.4-0.9,3.6-2.7,3.6-5.6c0-1.7-0.6-3.2-1.8-4.4c-0.4-0.4-1-0.8-1.7-1.3c-0.7-0.4-1.5-0.8-2.4-1.3
		c-1.5-0.6-2.4-1.2-2.9-1.6c-0.8-0.7-1.2-1.5-1.2-2.5c0-1.1,0.4-1.9,1.1-2.5c0.7-0.6,1.7-0.9,2.7-0.9c1.1,0,1.9,0.2,2.6,0.6
		c0.5,0.3,1,0.8,1.3,1.4l0.1,0.2l1.7-0.7l-0.1-0.3c-1.1-2-2.9-2.9-5.5-2.9c-1.6,0-2.9,0.5-4,1.5c-1.1,1-1.7,2.2-1.7,3.8
		s0.6,2.8,1.7,3.8c0.6,0.6,1.8,1.3,3.5,2c0.9,0.4,1.6,0.8,2.2,1.1c0.6,0.3,1,0.6,1.2,0.8c1,0.9,1.5,2,1.5,3.3c0,1.4-0.4,2.5-1.3,3.2
		c-0.8,0.7-2,1.1-3.4,1.1c-2.5,0-4.1-1.2-4.8-3.6l-0.1-0.3l-1.7,0.6l0.1,0.3c1,3.2,3.2,4.8,6.6,4.8
		C259.2,32.5,260.1,32.4,260.9,32.1z"/>
	<path class="st1" d="M81.2,47.4c0.5-0.2,1.7-1,1.7-2.6c0-1.5-1-3.1-3.9-3.1h-4.7v0.6h0.1c0.7,0,1.1,0.3,1.1,1.1v9.4
		c0,0.7-0.3,1.1-1,1.1h-0.1v0.6h5.1c3.1,0,4.3-2,4.3-3.7C83.6,48.4,81.9,47.6,81.2,47.4z M78.5,42.1c1.5,0,2.9,0.9,2.9,2.5
		c0,1.7-1.7,2.5-2.9,2.5h-1.8v-5.1L78.5,42.1L78.5,42.1z M76.8,47.9h1.4c2.5,0,4.1,0.5,4.1,2.9c0,1.6-1.2,2.9-2.8,2.9h-1.7
		c-0.7,0-1-0.3-1-1C76.8,52.7,76.8,47.9,76.8,47.9z"/>
	<path class="st1" d="M100.1,42.1L100.1,42.1c0.8,0,1.2,0.3,1.2,1.1v6.1c0,2.9-1.3,4.5-3.7,4.5s-3.7-1.6-3.7-4.5v-6.1
		c0-0.7,0.3-1,1.1-1h0v-0.6h-3.6v0.6h0.1c0.7,0,1.1,0.3,1.1,1.1v6.1c0,3.3,1.8,5.1,5.1,5.1c2.7,0,4.3-1.8,4.3-4.8v-6.4
		c0-0.7,0.3-1,1.1-1h0.1v-0.6h-2.8L100.1,42.1L100.1,42.1z"/>
	<path class="st1" d="M119.9,50.4c0,0-0.4,3.4-2.4,3.4h-3.8c-0.7,0-1-0.3-1-1V48h2.9c0.9,0,1.1,0.4,1.1,0.7v0.5h0.6v-2.8h-0.6v0.5
		c0,0.7-1,0.7-1,0.7h-2.9v-5.1h3.7c2.5,0,2.9,2.2,2.9,2.2v0.1h0.6l-0.8-2.8h-8.9v0.6h0.1c0.7,0,1.1,0.3,1.1,1.1v9.3
		c0,0.7-0.3,1.1-1,1.1h-0.1v0.6h9.9l0.4-4L119.9,50.4L119.9,50.4z"/>
	<path class="st1" d="M136.5,42.1L136.5,42.1c0.8,0,1.2,0.3,1.2,1.1v8.4l-7.1-10v-0.1h-2.8v0.6h0.1c0.7,0,1.1,0.3,1.1,1.1v9.5
		c0,0.7-0.3,1.1-1,1.1h-0.1v0.6h2.8v-0.6h-0.1c-0.7,0-1-0.3-1-1v-10l8.2,11.5h0.5V43.2c0-0.7,0.3-1,1.1-1h0.1v-0.6h-2.8v0.5H136.5z"
		/>
	<path class="st1" d="M151.9,41.6c-2.9,0-5.8,2-5.8,6.4c0,4.5,2.9,6.4,5.8,6.4c3.6,0,5.8-2.4,5.8-6.4
		C157.7,44,155.5,41.6,151.9,41.6z M151.9,53.8c-2.7,0-4.4-2.3-4.4-5.8c0-3.5,1.7-5.8,4.4-5.8s4.4,2.3,4.4,5.8
		C156.3,51.5,154.5,53.8,151.9,53.8z"/>
	<path class="st1" d="M170.4,46.9c-1.8-0.5-3.4-0.8-3.4-2.5c0-1.5,1.5-2.4,2.9-2.4c2.5,0,3.7,1.6,3.7,3.1v0.1h0.6v-3.8h-0.6v0.1
		c0,1.1-0.2,1.1-0.2,1.1c-0.1,0-0.2-0.1-0.3-0.2c-0.4-0.3-1.2-0.9-3.1-0.9c-2.1,0-4.3,1-4.3,3.1c0,2.2,2.1,2.8,4.1,3.4
		c2,0.6,3.9,1.2,3.9,3.1c0,1.6-1.9,2.5-3.7,2.5c-1.6,0-4.1-1.5-4.1-3.3v-0.1h-0.6v4h0.6v-0.1c0-0.8,0.2-1,0.3-1
		c0.1,0,0.2,0.1,0.5,0.2c0.6,0.3,1.7,0.9,3.4,0.9c3.5,0,5.1-1,5.1-3.3C175,48,172.5,47.4,170.4,46.9z"/>
	<path class="st1" d="M202,53.1c-0.3-0.6-5.1-11.4-5.1-11.4v-0.1h-0.5v0.1c-0.2,0.5-4.6,11.3-4.8,11.6c-0.2,0.3-0.3,0.5-0.6,0.5
		c-0.3,0-0.4,0-0.3,0l-0.2-0.1v0.6h2.7v-0.5v-0.1h-0.5c-0.2,0-0.3,0-0.4-0.1c0-0.1-0.1-0.2,0.1-0.5c0.2-0.6,1.2-2.8,1.4-3.3h5.3
		c0.2,0.5,1.3,2.9,1.4,3.2c0.1,0.2,0.2,0.5,0.2,0.6c0,0,0,0-0.2,0h-0.6v0.5h3.3v-0.5h-0.3C202.3,53.7,202.2,53.7,202,53.1z
		 M198.8,49.3H194l2.4-5.6L198.8,49.3z"/>
	<path class="st1" d="M210.7,42.1L210.7,42.1c0.8,0,1.1,0.3,1.1,1.1v9.4c0,0.7-0.3,1.1-1,1.1h-0.1v0.6h3.6v-0.6h-0.1
		c-0.7,0-1-0.3-1-1v-9.5c0-0.7,0.3-1,1.1-1h0.1v-0.6h-3.6v0.5H210.7z"/>
	<path class="st1" d="M231.5,52.1c0-2.2-1.4-3.8-2.3-4.3c1.4-0.2,2.3-1.4,2.3-3c0-0.8-0.2-3.1-3.7-3.1H223v0.6h0.1
		c0.7,0,1.1,0.3,1.1,1.1v9.3c0,0.7-0.3,1.1-1,1.1h-0.1v0.6h3.6v-0.6h-0.1c-0.7,0-1-0.3-1-1v-4.8h0.7c2.7,0,4,2.8,4,4.4
		c0,1.6,1,2,1,2h2.2v-0.6H233C232.3,53.7,231.5,53,231.5,52.1z M225.5,42.1h1.8c1.4,0,2.9,0.5,2.9,2.5c0,2.4-2.2,2.5-2.9,2.5h-1.8
		L225.5,42.1L225.5,42.1z"/>
	<path class="st1" d="M248.4,50.4c0,0-0.4,3.3-2.4,3.3h-3.8c-0.7,0-1-0.3-1-1v-4.8h2.9c0.9,0,1.1,0.4,1.1,0.7v0.5h0.6v-2.8h-0.6v0.5
		c0,0.7-1,0.7-1,0.7h-2.9v-5.1h3.7c2.5,0,2.9,2.1,2.9,2.2v0.1h0.6l-0.8-2.8h-8.8v0.6h0.1c0.7,0,1.1,0.3,1.1,1.1v9.2
		c0,0.7-0.3,1.1-1,1.1h-0.1v0.6h9.8l0.4-4L248.4,50.4L248.4,50.4z"/>
	<path class="st1" d="M259.9,46.9c-1.8-0.5-3.3-0.8-3.3-2.4c0-1.5,1.5-2.4,2.9-2.4c2.4,0,3.7,1.6,3.7,3.1v0.1h0.6v-3.8h-0.6v0.1
		c0,1.1-0.2,1.1-0.2,1.1c-0.1,0-0.2-0.1-0.3-0.2c-0.4-0.3-1.1-0.9-3.1-0.9c-2.1,0-4.3,1-4.3,3.1c0,2.2,2.1,2.7,4,3.3
		c2,0.6,3.9,1.1,3.9,3.1c0,1.6-1.9,2.5-3.7,2.5c-1.6,0-4-1.4-4-3.3v-0.1h-0.6v4h0.6v-0.1c0-0.8,0.2-1,0.3-1c0.1,0,0.2,0.1,0.5,0.2
		c0.6,0.3,1.7,0.9,3.3,0.9c3.5,0,5-1,5-3.3C264.4,48.1,262,47.5,259.9,46.9z"/>
	<rect x="65.3" y="3" width="1.1" height="58.1"/>
</g>
</svg>
