<svg height="300" width="300" xmlns="http://www.w3.org/2000/svg" viewBox="0 0 100 100">
  <switch>
    <g>
      <path d="M90.8 2.5H9.2c-1.1 0-1.9.9-1.9 1.9v68.4c0 1.1.9 1.9 1.9 1.9h27.7c.2.7.4 1.4.7 2l-5.9 12.5c-.5 1-.4 2.3.4 3.2.7.9 1.9 1.4 3 1.1l3.2-.6 1.6 2.8c.5 1 1.6 1.6 2.7 1.6h.1c1.2-.1 2.2-.7 2.7-1.8l4.7-9.9 4.7 9.9c.5 1.1 1.5 1.7 2.7 1.8h.1c1.1 0 2.2-.6 2.7-1.6l1.6-2.8 3.2.6c1.1.2 2.3-.2 3-1.1.7-.9.9-2.2.4-3.2l-5.9-12.5c.3-.6.5-1.3.7-2H91c1.1 0 1.9-.9 1.9-1.9V4.4c-.1-1-1-1.9-2.1-1.9zM50 80.9c-5.4 0-9.8-4.4-9.8-9.8s4.4-9.8 9.8-9.8 9.8 4.4 9.8 9.8c0 5.5-4.4 9.8-9.8 9.8zm8.4-20.4c-2.3-1.8-5.2-2.9-8.4-2.9s-6 1.1-8.4 2.9H21.5V16.8h57v43.7H58.4zM42.5 92.6l-1.1-2c-.5-1-1.6-1.6-2.7-1.6-.2 0-.4 0-.6.1l-2.2.4 4.2-9c1.7 1.8 3.9 3.1 6.3 3.8l-3.9 8.3zm21.6-3.1l-2.2-.4c-1.3-.3-2.6.4-3.3 1.5l-1.1 2-3.9-8.3c2.4-.7 4.6-2 6.3-3.7l4.2 8.9zm24.8-18.6H63.6c-.1-2.4-.7-4.6-1.9-6.5h18.7c1.1 0 1.9-.9 1.9-1.9V14.8c0-1.1-.9-1.9-1.9-1.9H19.6c-1.1 0-1.9.9-1.9 1.9v47.6c0 1.1.9 1.9 1.9 1.9h18.7c-1.1 1.9-1.8 4.1-1.9 6.5H11.1V6.4h77.8v64.5z"/>
      <path d="M69 24.7H31c-1.1 0-1.9.9-1.9 1.9 0 1.1.9 1.9 1.9 1.9h38c1.1 0 1.9-.9 1.9-1.9 0-1-.9-1.9-1.9-1.9zM69 36.7H31c-1.1 0-1.9.9-1.9 1.9s.9 1.9 1.9 1.9h38c1.1 0 1.9-.9 1.9-1.9s-.9-1.9-1.9-1.9zM69 48.6H31c-1.1 0-1.9.9-1.9 1.9 0 1.1.9 1.9 1.9 1.9h38c1.1 0 1.9-.9 1.9-1.9 0-1-.9-1.9-1.9-1.9zM54.9 68.7l-2.4-.5c-.2 0-.4-.2-.6-.4l-1.2-2.2a.77.77 0 00-1.4 0l-1.2 2.2c-.1.2-.3.4-.6.4l-2.4.5c-.6.1-.9.9-.4 1.4l1.7 1.8c.2.2.2.4.2.7l-.4 2.4c-.1.6.6 1.1 1.2.9l2.2-1c.2-.1.5-.1.7 0l2.2 1c.6.3 1.3-.2 1.2-.9l-.3-2.4c0-.2 0-.5.2-.7l1.7-1.8c.5-.5.2-1.3-.4-1.4z"/>
    </g>
  </switch>
</svg>
