<svg height="300" width="300" xmlns="http://www.w3.org/2000/svg" viewBox="0 0 100 100">
  <switch>
    <g>
      <path d="M93.1 7.5H38.6c-2.4 0-4.4 2-4.4 4.4v29.9c-6.9-2-14-3-21.3-3-.9 0-1.7.7-1.7 1.7v4.4h-7c-.9 0-1.7.7-1.7 1.7v44.3c0 .9.7 1.7 1.7 1.7H81c.9 0 1.7-.7 1.7-1.7V61.5h10.4c2.4 0 4.4-2 4.4-4.4V11.9c0-2.4-2-4.4-4.4-4.4zm-54.5 3.4h54.5c.5 0 1 .4 1 1v7.8H37.6v-7.8c0-.5.4-1 1-1zm-24 31.2c9.1.2 17.9 2.1 26.3 5.5v40.7C32.5 85 23.7 83.2 14.6 83V42.1zm29.7 46.2V47.7c8.4-3.5 17.2-5.3 26.3-5.5V83c-9.1.2-17.9 2-26.3 5.3zM5.9 48.2h5.3v36.5c0 .9.7 1.7 1.7 1.7 6.7 0 13.2.9 19.6 2.7H5.9V48.2zm73.4 40.9H52.6c6.4-1.8 12.9-2.7 19.6-2.7.9 0 1.7-.8 1.7-1.7V48.2h5.4v40.9zm13.8-31H82.7V46.5c0-.9-.8-1.7-1.7-1.7h-7.1v-4.4c0-.9-.7-1.7-1.7-1.7-10.2 0-20.2 2-29.7 5.9-1.6-.7-3.3-1.2-5-1.8V23.1H94v34c.1.6-.3 1-.9 1z"/>
      <circle cx="42.2" cy="15.3" r="1.7"/>
      <circle cx="47.1" cy="15.3" r="1.7"/>
      <circle cx="51.9" cy="15.3" r="1.7"/>
      <path d="M20.8 52.6c4.5.5 8.9 1.4 13.3 2.7.2 0 .3.1.5.1.7 0 1.4-.5 1.6-1.2.3-.9-.2-1.8-1.1-2.1-4.5-1.4-9.2-2.3-13.9-2.8-.9-.1-1.8.6-1.9 1.5-.1.9.6 1.7 1.5 1.8zM35 60c-4.5-1.4-9.2-2.3-13.9-2.8-.9-.1-1.8.6-1.9 1.5-.1.9.6 1.8 1.5 1.9 4.5.5 8.9 1.4 13.3 2.7.2 0 .3.1.5.1.7 0 1.4-.5 1.6-1.2.3-.9-.2-1.9-1.1-2.2zM35 68c-4.5-1.4-9.2-2.3-13.9-2.8-.9-.1-1.8.6-1.9 1.5-.1.9.6 1.8 1.5 1.9 4.5.5 8.9 1.4 13.3 2.7.2 0 .3.1.5.1.7 0 1.4-.5 1.6-1.2.3-1-.2-1.9-1.1-2.2zM35 76c-4.5-1.4-9.2-2.3-13.9-2.8-.9-.1-1.8.6-1.9 1.5-.1.9.6 1.8 1.5 1.9 4.5.5 8.9 1.4 13.3 2.7.2 0 .3.1.5.1.7 0 1.4-.5 1.6-1.2.3-1-.2-1.9-1.1-2.2zM64 49.3c-4.7.5-9.3 1.4-13.9 2.8-.9.3-1.4 1.2-1.1 2.1.2.7.9 1.2 1.6 1.2.2 0 .3 0 .5-.1 4.3-1.3 8.8-2.2 13.3-2.7.9-.1 1.6-.9 1.5-1.9-.1-.9-.9-1.5-1.9-1.4zM64 57.2c-4.7.5-9.3 1.4-13.9 2.8-.9.3-1.4 1.2-1.1 2.1.2.7.9 1.2 1.6 1.2.2 0 .3 0 .5-.1 4.3-1.3 8.8-2.2 13.3-2.7.9-.1 1.6-.9 1.5-1.9-.1-.8-.9-1.5-1.9-1.4zM64 65.2c-4.7.5-9.3 1.4-13.9 2.8-.9.3-1.4 1.2-1.1 2.1.2.7.9 1.2 1.6 1.2.2 0 .3 0 .5-.1 4.3-1.3 8.8-2.2 13.3-2.7.9-.1 1.6-.9 1.5-1.9-.1-.8-.9-1.5-1.9-1.4zM64 73.2c-4.7.5-9.3 1.4-13.9 2.8-.9.3-1.4 1.2-1.1 2.1.2.7.9 1.2 1.6 1.2.2 0 .3 0 .5-.1 4.3-1.3 8.8-2.2 13.3-2.7.9-.1 1.6-.9 1.5-1.9-.1-.8-.9-1.5-1.9-1.4z"/>
    </g>
  </switch>
</svg>
