<svg xmlns="http://www.w3.org/2000/svg" viewBox="0 0 300 300">
  <path d="M285.2 178.2l-42.4 7.1c-2.8.5-5.5 1.5-7.8 3l-3.2-8.2c-1.3-3.3-3.1-6.3-5.4-9l1.2-11.1c.3-2.8.5-5.7.5-8.5 0-10.4-2.1-20.7-6.2-30.2-4-9.4-5.9-19.7-5.3-29.9l.8-16.4c0-1 .1-2 .1-3 0-34.6-28-62.7-62.6-62.7s-62.7 28-62.7 62.6c0 1.1 0 2.1.1 3.2l.8 16.2c0 1.2.1 2.3.1 3.5 0 9.1-1.8 18.1-5.4 26.5-5.2 12.2-7.2 25.5-5.7 38.7l1.2 11c-1.4 1.7-2.7 3.5-3.7 5.4l-6.4-16c-2.8-7.1-10.8-10.6-17.9-7.8-7.1 2.8-10.6 10.8-7.8 17.9.2.4.3.8.5 1.1l.9 1.8h-9.2c-3.6 0-7.2-.9-10.5-2.5l-4.7-2.3c-5.1-2.5-11.3-.5-13.8 4.6-.7 1.4-1.1 3-1.1 4.6V191c0 5.3 3 10.2 7.8 12.6l7.6 3.8c4.6 2.3 9.6 3.5 14.7 3.5h2.7v13.9L39 268.6c-.9 11.3 7.6 21.1 18.8 22 .5 0 1.1.1 1.6.1.2 0 .4-.1.6-.1h1.3c7.9 0 15-4.9 17.7-12.4l21.4-39.8c1.3 5.9 3.8 11.5 7.5 16.4v35.9h9.4v-37.5c0-1.1-.4-2.2-1.1-3-11.3-13.5-9.4-33.7 4.1-45l-6-7.2c-2.4 2-4.6 4.3-6.5 6.9-2.5 3.4-4.5 7.1-5.9 11.1l-22.1 41v-57l6.7-16.6c1.1-2.8 2.8-5.4 4.9-7.6 4.4-4.5 10.5-7.1 16.8-7.1h15.7l26.8 49.1c1.2 2.3 4.1 3.1 6.4 1.9.8-.4 1.4-1.1 1.9-1.9l9.9-18.2v62.9c0 2.2 1.6 4.1 3.8 4.6l19.7 3.9v19.6h9.4v-17.7l17.8 3.6c.3.1.6.1.9.1h8.9l.9 1.7c2.8 7.4 9.9 12.4 17.8 12.4 1 0 2.1-.1 3.1-.3 6.7-1.1 12.3-5.8 14.6-12.2l12.5-2.1c4.3-.7 7.6-4.4 7.8-8.8l.9-.2c2.2-.4 3.8-2.4 3.8-4.6v-79.7c0-2.6-2.1-4.7-4.7-4.7-.4 0-.7 0-.9.1zm-40.9 16.3l36.9-6.2v4.7l-34.1 6.8-8.5 1.7h-3.3c1.6-3.7 5-6.3 9-7zm-110.4-26.7c4.1-1.8 6.7-5.8 6.7-10.3v-14.3c9.2 2.9 19 2.9 28.1 0v14.3c0 4.4 2.6 8.5 6.7 10.3l-5.6 10.4h-30.2l-5.7-10.4zm20.8-31.9c-20.7 0-37.5-16.8-37.5-37.5v-21c8.4-6.1 15.4-14 20.3-23.2 15.9 12.7 34.7 21.2 54.7 24.8v19.4c0 20.7-16.8 37.5-37.5 37.5zm63.4 40.1c2.1 2.1 3.8 4.7 4.9 7.5l2.1 5.2c-2.5-1.8-5.4-2.9-8.4-3.5l-36.7-6.1 5.7-10.4h15.6c6.3 0 12.4 2.7 16.8 7.3zm2.7 25.6l-8.5-1.7-34.1-6.8v-4.7l36.9 6.2c4 .7 7.4 3.3 9 7.1h-3.3zM29 199.1l-7.6-3.8c-1.6-.8-2.6-2.4-2.6-4.2v-13.2c0-.3.2-.6.4-.8.1-.1.3-.1.5-.1.1 0 .3 0 .4.1l4.7 2.3c4.6 2.3 9.6 3.4 14.7 3.5h16.8c2.6 0 4.7-2.1 4.7-4.7 0-.7-.2-1.4-.5-2.1l-4.3-8.6c-1.1-2.2-.1-4.9 2.1-5.9 2.2-1.1 4.9-.1 5.9 2.1 0 .1.1.1.1.2l6.1 15.2v22.5H39.5c-3.7 0-7.3-.9-10.5-2.5zm41.3 11.8v9.4H51.6v-9.4h18.7zm-22.1 58.4l3-39.6h19.1v40.5c0 6.1-5 11.1-11.1 11.1s-11.1-5-11.1-11.1c0-.3 0-.6.1-.9zm43.5-105.5l-.5-4.8c-1.3-11.6.4-23.3 5-34 4.1-9.5 6.2-19.8 6.2-30.2 0-1.3 0-2.6-.1-3.9l-.8-16.2c-1.5-29.4 21.2-54.4 50.6-55.9 29.4-1.5 54.4 21.2 55.9 50.6 0 .9.1 1.7.1 2.6 0 .8 0 1.7-.1 2.7l-.8 16.2c-.6 11.7 1.5 23.3 6.1 34.1 3.6 8.4 5.5 17.4 5.5 26.5 0 2.5-.2 5-.4 7.5l-.5 4.8c-5-2.9-10.7-4.5-16.5-4.5H180c-1 0-1.9-.8-1.9-1.9V139c14.5-8.4 23.4-23.8 23.4-40.5V75c0-2.3-1.7-4.3-4-4.6-20.6-2.9-40-11.5-55.9-24.8l-2.7-2.2c-2-1.7-4.9-1.4-6.6.6l-.6.9-1.8 3.6c-4.6 9.2-11.5 17-20 22.7-1.3.9-2.1 2.3-2.1 3.9v23.4c0 16.7 9 32.2 23.4 40.5v18.5c0 1-.8 1.9-1.9 1.9H108c-5.7 0-11.3 1.5-16.3 4.4zm63 42l-10-18.3h20l-10 18.3zm23.4-3.2l37.5 7.5v56.1l-37.5-7.5v-56.1zm46.9 8.3h9.4v56.3H225v-56.3zm24.4 70.2c-3.9.7-7.8-1.2-9.7-4.6h.4l9.7-1.9c1 1.9 2.7 3.3 4.7 4.1-1.5 1.2-3.2 2.1-5.1 2.4zm27.2-14.3l-18.8 3.1v-17.4c0-.7.5-1.3 1.2-1.4l15.9-2.7h.2c.8 0 1.4.6 1.4 1.4l.1 17 .8 4.6-.8-4.6zm-3.2-27.6l-15.9 2.7c-5.2.9-9 5.4-9 10.6v12.7l-4.7.9V210l37.5-7.5V241c-2.3-1.6-5.2-2.2-7.9-1.8z"/>
</svg>
