<svg height="300" width="300" xmlns="http://www.w3.org/2000/svg" data-name="Layer 1" viewBox="0 0 66 66">
  <path d="M46.57 8.203v14.645l11.875-7.322zm2.5 4.478l4.611 2.845-4.61 2.844z"/>
  <path d="M36.805 27.394a12.44 12.44 0 015.65-.547 13.838 13.838 0 10-5.233-7.115l-2.341 5.585a1.561 1.561 0 001.924 2.077zm2.93-8.038a11.34 11.34 0 113.95 5.296l-.24-.178-.297-.05a14.212 14.212 0 00-2.34-.194 14.648 14.648 0 00-2.882.291l1.973-4.707zM27.308 34.292a16.655 16.655 0 00.106 1.676 2.376 2.376 0 00-.672 1.767c.002.381.1 1.177.103 1.185l.01.06a3.265 3.265 0 001.132 2.122 6.511 6.511 0 00.877 1.779 2.557 2.557 0 01.527.959 2.763 2.763 0 01-.042.322c-.694.22-2.24.666-4.66 1.321a2.872 2.872 0 00-2.057 2.19c-.166.789-.454 2.203-.522 2.803a1.25 1.25 0 002.485.28c.04-.353.225-1.337.485-2.575a.38.38 0 01.269-.287q1.123-.304 2.244-.615c.514-.143 1.027-.288 1.538-.438.326-.096.65-.194.974-.299.185-.06.371-.122.553-.195a1.838 1.838 0 00.304-.146 2.2 2.2 0 00.833-1.51 3.804 3.804 0 00.09-.96 4.474 4.474 0 00-.98-2.295 4.203 4.203 0 01-.624-1.398 1.322 1.322 0 00-.635-.819.712.712 0 01-.315-.585 1.029 1.029 0 00-.016-.096c-.017-.15-.07-.633-.076-.741a.62.62 0 00.002-.045 1.25 1.25 0 00.74-1.293c-.056-.462-.185-1.763-.174-2.082.058-1.76 2.115-2.227 3.19-2.229 1.08.002 3.136.47 3.194 2.232.011.316-.118 1.617-.173 2.079a1.25 1.25 0 00.738 1.293c-.007.186-.059.659-.073.783a1.15 1.15 0 00-.016.099.712.712 0 01-.315.586 1.258 1.258 0 00-.458.424 1.234 1.234 0 00-.177.394 4.208 4.208 0 01-.622 1.397 4.482 4.482 0 00-.984 2.3 3.991 3.991 0 00.104 1.019 2.078 2.078 0 00.89 1.487 2.7 2.7 0 00.323.14c.207.078.419.147.63.214.359.114.72.22 1.081.325q.837.242 1.676.473.913.252 1.827.498a.386.386 0 01.277.295c.259 1.233.444 2.217.484 2.57a1.25 1.25 0 001.24 1.11 1.39 1.39 0 00.142-.008 1.25 1.25 0 001.103-1.382c-.068-.6-.356-2.014-.521-2.798a2.88 2.88 0 00-2.065-2.198c-2.418-.653-3.963-1.098-4.655-1.32a5.182 5.182 0 01-.043-.243 2.328 2.328 0 01.53-1.037 6.517 6.517 0 00.877-1.778 3.265 3.265 0 001.132-2.123l.01-.06c.002-.007.1-.803.103-1.184a2.376 2.376 0 00-.672-1.767 16.634 16.634 0 00.105-1.673c-.1-3.044-2.937-4.642-5.692-4.647-2.751.005-5.589 1.603-5.689 4.644z"/>
  <path d="M57.268 54.567V33.67a1.25 1.25 0 00-2.5 0V54.56l-16.756-.036-.042 1.21a1.152 1.152 0 01-1.156 1.087h-7.542a1.15 1.15 0 01-1.155-1.099l-.053-1.198-17.905.039V28.25a1.312 1.312 0 011.31-1.31h19.06a1.25 1.25 0 100-2.5H11.47a3.814 3.814 0 00-3.81 3.81v26.32l-5.907.012v4.022a5.56 5.56 0 005.393 5.7h51.707a5.56 5.56 0 005.394-5.7v-4.022zm4.478 4.037a3.062 3.062 0 01-2.894 3.2H7.145a3.062 3.062 0 01-2.893-3.2v-1.528l21.624-.046a3.65 3.65 0 003.396 2.292h7.542a3.69 3.69 0 003.395-2.292l21.537.046z"/>
</svg>
